<svg xmlns="http://www.w3.org/2000/svg" version="1.1" xmlns:xlink="http://www.w3.org/1999/xlink" width="1080" height="1080"><svg viewBox="0 0 1080 1080" xmlns="http://www.w3.org/2000/svg" xml:space="preserve" style="fill-rule:evenodd;clip-rule:evenodd;stroke-linejoin:round;stroke-miterlimit:2">
    <path d="M320.168 295.459c-3.169.758-9.204-.134-9.204-.134 11.469-10.583 7.096-28.036 7.096-28.036-5.774 3.544-9.888 2.484-9.888 2.484 6.152-12.286.606-22.856.606-22.856-5.031 3.713-8.663 3.68-8.663 3.68 3.756-15.331-1.073-22.129-1.073-22.129-2.865 2.567-6.791 5.441-6.791 5.441 1.583-9.282-2.114-17.509-2.114-17.509-3.62 1.657-6.034 2.116-6.034 2.116.228-5.207-3.925-12.231-3.925-12.231-1.51 2.171-4.907 2.725-4.907 2.725-2.338-11.921-7.767-17.87-7.767-17.87s-5.434 5.949-7.771 17.87c0 0-3.395-.554-4.904-2.725 0 0-4.149 7.024-3.925 12.231 0 0-2.414-.459-6.037-2.116 0 0-3.697 8.227-2.112 17.509 0 0-3.924-2.874-6.792-5.441 0 0-4.83 6.798-1.074 22.129 0 0-3.632.033-8.66-3.68 0 0-5.548 10.57.602 22.856 0 0-4.113 1.06-9.88-2.484 0 0-4.38 17.453 7.091 28.036 0 0-6.037.892-9.206.134 0 0 3.775 17.528 14.339 23.26 0 0-5.136.578-7.398 1.331 0 0 8.602 15.871 45.727 17.082 37.128-1.211 45.726-17.082 45.726-17.082-2.266-.753-7.395-1.331-7.395-1.331 10.558-5.732 14.333-23.26 14.333-23.26Z" style="fill:#007a55" transform="translate(-1088.822 -1113.632) scale(6.08902)"></path>
    <path d="M295.837 288.655c-1.197-.991-13.055 7.23-25.8 17.794-.007-9.945-.01-19.937-.013-29.179.146-.182.306-.371.449-.546 9.692-11.696 17.308-22.488 16.482-23.477-.814-.99-8.613 6.807-16.934 16.857-.01-20.372-1.149-38.063-2.549-38.063-1.399 0-2.532 17.671-2.528 38.012-8.302-10.018-16.077-17.796-16.894-16.806-.823.989 6.789 11.781 16.48 23.477.134.163.28.338.417.5 0 9.256 0 19.26.003 29.206-12.741-10.551-24.587-18.766-25.784-17.775-1.192.988 9.897 11.781 24.007 23.476.577.476 1.188.983 1.781 1.471 0 7.349.045 37.641.045 37.641 0 .422 1.132.768 2.531.768 1.404 0 2.536-.346 2.536-.768 0 0-.016-8.657-.029-37.627.598-.496 1.214-1.003 1.796-1.485 14.112-11.695 25.196-22.488 24.004-23.476Z" style="fill:#096" transform="translate(-1088.822 -1113.632) scale(6.08902)"></path>
</svg><style>@media (prefers-color-scheme: light) { :root { filter: none; } }
@media (prefers-color-scheme: dark) { :root { filter: none; } }
</style></svg>